<?xml version="1.0" standalone="no"?>
<!DOCTYPE svg PUBLIC "-//W3C//DTD SVG 20010904//EN"
 "http://www.w3.org/TR/2001/REC-SVG-20010904/DTD/svg10.dtd">
<svg version="1.0" xmlns="http://www.w3.org/2000/svg"
 width="1200.000000pt" height="1200.000000pt" viewBox="0 0 1200.000000 1200.000000"
 preserveAspectRatio="xMidYMid meet">

<g transform="translate(0.000000,1200.000000) scale(0.100000,-0.100000)"
fill="#000000" stroke="none">
<path d="M0 6000 l0 -6000 6000 0 6000 0 0 6000 0 6000 -6000 0 -6000 0 0
-6000z m7971 3481 c306 -80 547 -294 659 -584 50 -127 60 -198 60 -408 l0
-189 -1330 0 -1330 0 0 155 0 155 383 0 384 0 12 81 c63 413 365 727 774 805
98 19 289 11 388 -15z m715 -1488 c-17 -166 -94 -361 -195 -495 -142 -187
-371 -321 -613 -359 -43 -7 -118 -9 -183 -6 -238 13 -438 100 -608 266 -90 86
-147 168 -201 282 -52 111 -75 195 -83 302 l-6 77 948 0 947 0 -6 -67z m-5586
-1038 l0 -645 190 0 190 0 0 645 0 645 675 0 675 0 0 -1105 0 -1105 235 0 235
0 0 178 c0 114 5 208 15 265 86 487 463 897 960 1042 191 56 204 56 1537 52
1299 -4 1243 -2 1425 -51 34 -9 106 -34 159 -56 434 -177 762 -572 839 -1010
13 -73 15 -292 15 -1522 0 -1379 -1 -1439 -19 -1497 -61 -197 -231 -315 -431
-298 -170 14 -303 115 -364 275 l-21 57 -3 1363 -2 1362 -150 0 -150 0 0 -80
0 -80 123 0 c68 0 126 -3 129 -6 4 -3 -52 -91 -123 -196 l-129 -191 0 -495 0
-494 130 -191 131 -192 -131 -3 -130 -3 0 -559 0 -560 -1327 2 -1328 3 -3 558
-2 557 -163 0 -162 0 -24 -56 c-34 -78 -100 -147 -176 -185 -50 -24 -83 -32
-161 -39 -136 -13 -2079 -12 -2173 0 -144 19 -264 98 -321 214 l-31 61 -303 5
-303 5 293 433 c162 239 294 438 294 443 0 5 -294 9 -735 9 l-735 0 0 1545 0
1545 675 0 675 0 0 -645z"/>
<path d="M6150 5470 l0 -80 150 0 150 0 0 80 0 80 -150 0 -150 0 0 -80z"/>
<path d="M4332 5191 c-84 -29 -125 -79 -151 -184 -16 -65 -17 -302 -2 -321 8
-10 9 -15 1 -18 -15 -5 -15 -598 0 -664 19 -84 67 -143 148 -180 44 -20 68
-24 145 -24 133 0 197 33 255 130 45 77 49 177 29 785 -11 326 -15 345 -81
422 -27 31 -50 46 -90 57 -73 21 -188 20 -254 -3z m181 -150 c16 -6 29 -23 35
-43 6 -18 13 -172 17 -343 3 -170 8 -380 11 -466 l6 -155 -27 -32 c-24 -29
-32 -32 -81 -32 -44 0 -60 5 -78 23 -22 22 -23 32 -28 203 -3 112 -10 189 -17
203 -10 17 -10 26 -1 36 9 11 10 68 6 212 -3 109 -6 205 -6 213 -1 33 16 136
24 148 11 17 64 41 93 42 12 0 33 -4 46 -9z"/>
<path d="M4920 5185 c-10 -12 -11 -161 -7 -682 3 -368 8 -675 12 -684 9 -23
109 -25 143 -3 l24 16 -4 478 c-2 263 0 477 3 474 4 -2 10 -23 14 -47 4 -23
24 -130 45 -237 21 -107 48 -247 60 -310 40 -213 72 -365 80 -373 4 -5 24 -11
45 -14 53 -7 72 14 80 90 3 34 13 89 20 122 8 33 22 103 30 155 9 52 27 154
41 225 30 161 42 227 49 285 3 25 12 59 20 75 l13 30 2 -45 c0 -25 2 -240 3
-478 2 -502 -5 -468 102 -456 33 4 63 11 67 17 3 6 4 105 2 221 -3 116 -5 391
-5 611 0 434 -3 508 -26 530 -11 11 -40 15 -113 15 l-99 0 -9 -52 c-24 -134
-35 -196 -37 -228 -2 -19 -10 -71 -18 -115 -9 -44 -18 -91 -20 -105 -3 -14
-12 -50 -20 -80 -8 -30 -21 -91 -28 -135 -20 -128 -46 -241 -52 -225 -14 43
-70 314 -77 371 -3 36 -10 71 -15 78 -4 7 -11 38 -16 69 -5 32 -12 84 -17 117
-17 109 -54 280 -64 293 -16 19 -212 17 -228 -3z"/>
<path d="M3488 5179 c-16 -9 -17 -57 -17 -665 -1 -767 -8 -714 94 -714 56 0
66 3 77 23 10 16 13 94 14 302 2 385 1 360 19 345 8 -7 15 -18 15 -25 0 -14
113 -351 173 -520 20 -55 44 -106 54 -112 10 -8 49 -13 101 -13 l84 0 -6 28
c-9 36 -37 113 -157 427 l-100 260 46 124 c25 69 44 130 41 138 -3 7 -1 13 4
13 5 0 23 37 40 83 45 115 110 298 110 309 0 5 -44 7 -97 6 l-98 -3 -23 -65
c-12 -36 -54 -162 -93 -280 -39 -118 -78 -231 -87 -250 l-16 -35 -8 50 c-4 28
-7 165 -6 305 1 141 -2 261 -6 268 -9 15 -133 16 -158 1z"/>
<path d="M5929 5169 c-17 -33 -9 -1357 9 -1368 19 -11 165 -1 175 13 4 6 5 34
2 61 -2 28 -6 151 -7 275 -3 207 -2 225 15 228 9 2 19 -2 22 -10 43 -129 179
-511 190 -535 l15 -33 79 0 c88 0 111 5 111 26 0 20 -83 244 -158 424 l-59
144 62 61 c91 89 105 131 106 338 1 189 -12 251 -66 314 -62 73 -98 83 -305
83 -172 0 -180 -1 -191 -21z m338 -181 c32 -35 42 -83 44 -208 2 -172 4 -162
-43 -193 -33 -21 -54 -27 -99 -27 -43 0 -58 4 -63 16 -3 9 -6 110 -6 225 l0
209 73 0 c63 0 76 -3 94 -22z"/>
<path d="M6792 5178 c-11 -14 -25 -99 -67 -392 -14 -99 -23 -186 -20 -194 3
-8 1 -20 -4 -26 -12 -15 -42 -186 -46 -265 -2 -36 -10 -93 -18 -126 -15 -62
-37 -210 -37 -255 0 -14 -1 -43 -3 -65 l-2 -40 74 -5 c43 -3 79 -1 86 5 7 6
18 53 24 105 6 52 17 128 23 168 l12 72 60 1 c34 0 78 2 99 4 20 1 40 -1 42
-6 6 -8 20 -102 34 -224 5 -38 14 -82 20 -97 10 -27 13 -28 85 -28 47 0 77 5
84 13 6 7 7 32 2 67 -5 30 -16 111 -25 180 -9 69 -31 235 -50 370 -18 135 -43
317 -54 405 -35 270 -42 309 -58 328 -14 14 -34 17 -133 17 -82 0 -121 -4
-128 -12z m163 -431 c3 -45 13 -134 21 -197 8 -63 18 -136 21 -162 l6 -48 -50
0 c-28 0 -65 -3 -83 -7 l-33 -6 7 49 c20 139 29 214 31 264 2 30 10 91 19 135
8 44 18 98 22 120 l7 40 13 -53 c6 -29 15 -90 19 -135z"/>
<path d="M7373 5184 c-20 -9 -19 -1347 1 -1363 8 -7 70 -12 167 -14 126 -2
165 1 214 16 85 27 136 80 164 172 20 67 21 86 17 465 -2 217 -6 427 -9 467
-8 87 -36 151 -85 194 -64 57 -90 63 -282 66 -96 1 -181 0 -187 -3z m311 -174
c14 -5 33 -24 43 -42 16 -30 18 -73 23 -443 3 -225 2 -427 -1 -449 -4 -21 -18
-50 -33 -64 -22 -22 -37 -27 -96 -30 l-70 -4 -1 58 c-2 312 1 967 6 974 8 13
96 13 129 0z"/>
<path d="M8101 5181 c-11 -7 -13 -70 -8 -352 4 -189 6 -491 6 -671 l0 -327 26
-17 c23 -15 49 -16 225 -11 118 3 207 10 220 17 19 10 21 18 18 83 l-3 72
-147 3 -147 3 -3 229 -3 230 107 0 c99 0 108 2 119 21 12 23 8 133 -5 146 -4
5 -48 10 -98 12 -67 2 -93 0 -99 -10 -19 -31 -24 14 -24 204 l0 202 135 3 c74
1 139 7 144 12 6 6 11 37 13 70 5 88 4 88 -252 89 -116 0 -217 -4 -224 -8z"/>
</g>
</svg>
